# Blender v2.92.0 OBJ File: ''
# www.blender.org
mtllib projectileB.mtl
o Cylinder
v 0.000000 -0.245709 -0.112545
v 0.043069 -0.245709 -0.103978
v 0.079581 -0.245709 -0.079581
v 0.103978 -0.245709 -0.043069
v 0.112545 -0.245709 0.000000
v 0.103978 -0.245709 0.043069
v 0.079581 -0.245709 0.079581
v 0.043069 -0.245709 0.103978
v 0.000000 -0.245709 0.112545
v -0.043069 -0.245709 0.103978
v -0.079581 -0.245709 0.079581
v -0.103978 -0.245709 0.043069
v -0.112545 -0.245709 0.000000
v -0.103978 -0.245709 -0.043069
v -0.079581 -0.245709 -0.079581
v -0.043069 -0.245709 -0.103978
v 0.000000 0.132608 -0.125000
v 0.047835 0.132608 -0.115485
v 0.088388 0.132608 -0.088388
v 0.115485 0.132608 -0.047835
v 0.125000 0.132608 0.000000
v 0.115485 0.132608 0.047835
v 0.088388 0.132608 0.088388
v 0.047835 0.132608 0.115485
v 0.000000 0.132608 0.125000
v -0.047835 0.132608 0.115485
v -0.088388 0.132608 0.088388
v -0.115485 0.132608 0.047835
v -0.125000 0.132608 0.000000
v -0.115485 0.132608 -0.047835
v -0.088388 0.132608 -0.088388
v -0.047835 0.132608 -0.115485
v 0.000000 0.213730 -0.090176
v 0.034509 0.213730 -0.083311
v 0.063764 0.213730 -0.063764
v 0.083311 0.213730 -0.034509
v 0.090176 0.213730 0.000000
v 0.083311 0.213730 0.034509
v 0.063764 0.213730 0.063764
v 0.034509 0.213730 0.083311
v 0.000000 0.213730 0.090176
v -0.034509 0.213730 0.083311
v -0.063764 0.213730 0.063764
v -0.083311 0.213730 0.034509
v -0.090176 0.213730 0.000000
v -0.083311 0.213730 -0.034509
v -0.063764 0.213730 -0.063764
v -0.034509 0.213730 -0.083311
v 0.000000 0.254291 -0.029222
v 0.011183 0.254291 -0.026997
v 0.020663 0.254291 -0.020663
v 0.026997 0.254291 -0.011183
v 0.029222 0.254291 0.000000
v 0.026997 0.254291 0.011183
v 0.020663 0.254291 0.020663
v 0.011183 0.254291 0.026997
v 0.000000 0.254291 0.029222
v -0.011183 0.254291 0.026997
v -0.020663 0.254291 0.020663
v -0.026997 0.254291 0.011183
v -0.029222 0.254291 0.000000
v -0.026997 0.254291 -0.011183
v -0.020663 0.254291 -0.020663
v -0.011183 0.254291 -0.026997
v 0.044607 0.173169 -0.107692
v 0.082424 0.173169 -0.082424
v 0.107692 0.173169 -0.044607
v 0.116565 0.173169 0.000000
v 0.107692 0.173169 0.044607
v 0.082424 0.173169 0.082424
v 0.044607 0.173169 0.107692
v 0.000000 0.173169 0.116565
v -0.044607 0.173169 0.107692
v -0.082424 0.173169 0.082424
v -0.107692 0.173169 0.044607
v -0.116564 0.173169 0.000000
v -0.107692 0.173169 -0.044607
v -0.082423 0.173169 -0.082424
v -0.044607 0.173169 -0.107692
v 0.000000 0.173169 -0.116565
v 0.024392 0.234010 -0.058887
v 0.045070 0.234010 -0.045070
v 0.058887 0.234010 -0.024392
v 0.063739 0.234010 0.000000
v 0.058887 0.234010 0.024392
v 0.045070 0.234010 0.045070
v 0.024392 0.234010 0.058887
v 0.000000 0.234010 0.063739
v -0.024392 0.234010 0.058887
v -0.045070 0.234010 0.045070
v -0.058887 0.234010 0.024392
v -0.063739 0.234010 0.000000
v -0.058887 0.234010 -0.024392
v -0.045070 0.234010 -0.045070
v -0.024392 0.234010 -0.058887
v 0.000000 0.234010 -0.063739
v 0.000000 -0.245709 -0.125000
v 0.047835 -0.245709 -0.115485
v 0.088388 -0.245709 -0.088388
v 0.115485 -0.245709 -0.047835
v 0.125000 -0.245709 0.000000
v 0.115485 -0.245709 0.047835
v 0.088388 -0.245709 0.088388
v 0.047835 -0.245709 0.115485
v 0.000000 -0.245709 0.125000
v -0.047835 -0.245709 0.115485
v -0.088388 -0.245709 0.088388
v -0.115485 -0.245709 0.047835
v -0.125000 -0.245709 0.000000
v -0.115485 -0.245709 -0.047835
v -0.088388 -0.245709 -0.088388
v -0.047835 -0.245709 -0.115485
v 0.000000 -0.237375 -0.088226
v 0.033763 -0.237375 -0.081510
v 0.062385 -0.237375 -0.062385
v 0.081510 -0.237375 -0.033763
v 0.088226 -0.237375 0.000000
v 0.081510 -0.237375 0.033763
v 0.062385 -0.237375 0.062385
v 0.033763 -0.237375 0.081510
v 0.000000 -0.237375 0.088226
v -0.033763 -0.237375 0.081510
v -0.062385 -0.237375 0.062385
v -0.081510 -0.237375 0.033763
v -0.088226 -0.237375 0.000000
v -0.081510 -0.237375 -0.033763
v -0.062385 -0.237375 -0.062385
v -0.033763 -0.237375 -0.081510
v 0.000000 -0.237375 -0.112545
v 0.043069 -0.237375 -0.103978
v 0.079581 -0.237375 -0.079581
v 0.103978 -0.237375 -0.043069
v 0.112545 -0.237375 0.000000
v 0.103978 -0.237375 0.043069
v 0.079581 -0.237375 0.079581
v 0.043069 -0.237375 0.103978
v 0.000000 -0.237375 0.112545
v -0.043069 -0.237375 0.103978
v -0.079581 -0.237375 0.079581
v -0.103978 -0.237375 0.043069
v -0.112545 -0.237375 0.000000
v -0.103978 -0.237375 -0.043069
v -0.079581 -0.237375 -0.079581
v -0.043069 -0.237375 -0.103978
v 0.000000 -0.245707 -0.088226
v 0.033763 -0.245707 -0.081510
v 0.062385 -0.245707 -0.062385
v 0.081510 -0.245707 -0.033763
v 0.088226 -0.245707 0.000000
v 0.081510 -0.245707 0.033763
v 0.062385 -0.245707 0.062385
v 0.033763 -0.245707 0.081510
v 0.000000 -0.245707 0.088226
v -0.033763 -0.245707 0.081510
v -0.062385 -0.245707 0.062385
v -0.081510 -0.245707 0.033763
v -0.088226 -0.245707 0.000000
v -0.081510 -0.245707 -0.033763
v -0.062385 -0.245707 -0.062385
v -0.033763 -0.245707 -0.081510
vt 0.758934 0.848030
vt 0.771128 0.852951
vt 0.780510 0.862164
vt 0.785652 0.874266
vt 0.785771 0.887414
vt 0.780849 0.899608
vt 0.771636 0.908989
vt 0.759534 0.914131
vt 0.746386 0.914251
vt 0.734193 0.909329
vt 0.724811 0.900116
vt 0.719669 0.888014
vt 0.719550 0.874866
vt 0.724471 0.862673
vt 0.733684 0.853291
vt 0.745786 0.848149
vt 0.341437 0.297058
vt 0.341897 0.347699
vt 0.337007 0.347743
vt 0.336547 0.297103
vt 0.358562 0.631596
vt 0.580509 0.629581
vt 0.581019 0.685826
vt 0.359072 0.687840
vt 0.358051 0.575351
vt 0.579998 0.573337
vt 0.357541 0.519107
vt 0.579488 0.517092
vt 0.357030 0.462862
vt 0.578977 0.460848
vt 0.356520 0.406618
vt 0.578467 0.404603
vt 0.356009 0.350373
vt 0.577956 0.348359
vt 0.355499 0.294128
vt 0.577446 0.292114
vt 0.354988 0.237884
vt 0.576935 0.235870
vt 0.354478 0.181639
vt 0.576425 0.179625
vt 0.353968 0.125394
vt 0.575915 0.123380
vt 0.353457 0.069150
vt 0.575404 0.067136
vt 0.352947 0.012905
vt 0.574894 0.010891
vt 0.360604 0.856574
vt 0.582551 0.854560
vt 0.583061 0.910804
vt 0.361114 0.912819
vt 0.360093 0.800330
vt 0.582040 0.798315
vt 0.359583 0.744085
vt 0.581530 0.742070
vt 0.606163 0.631247
vt 0.644388 0.636837
vt 0.644757 0.677412
vt 0.606639 0.683695
vt 0.605652 0.575002
vt 0.643878 0.580592
vt 0.644246 0.621167
vt 0.606129 0.627451
vt 0.605142 0.518757
vt 0.643367 0.524348
vt 0.643736 0.564923
vt 0.605618 0.571206
vt 0.604632 0.462513
vt 0.642857 0.468103
vt 0.643225 0.508678
vt 0.605107 0.514962
vt 0.604121 0.406268
vt 0.642347 0.411859
vt 0.642715 0.452434
vt 0.604597 0.458717
vt 0.603611 0.350024
vt 0.641836 0.355614
vt 0.642204 0.396189
vt 0.604087 0.402473
vt 0.603100 0.293779
vt 0.641326 0.299370
vt 0.641694 0.339945
vt 0.603576 0.346228
vt 0.602590 0.237535
vt 0.640815 0.243125
vt 0.641183 0.283700
vt 0.603066 0.289984
vt 0.602079 0.181290
vt 0.640305 0.186881
vt 0.640673 0.227456
vt 0.602555 0.233739
vt 0.601569 0.125046
vt 0.639794 0.130636
vt 0.640163 0.171211
vt 0.602045 0.177495
vt 0.601059 0.068801
vt 0.639284 0.074392
vt 0.639652 0.114967
vt 0.601534 0.121250
vt 0.600548 0.012557
vt 0.638774 0.018147
vt 0.639142 0.058722
vt 0.601024 0.065005
vt 0.608205 0.856225
vt 0.646431 0.861815
vt 0.646799 0.902390
vt 0.608681 0.908674
vt 0.607695 0.799980
vt 0.645920 0.805570
vt 0.646288 0.846146
vt 0.608171 0.852429
vt 0.607184 0.743736
vt 0.645410 0.749326
vt 0.645778 0.789901
vt 0.607660 0.796185
vt 0.606673 0.687491
vt 0.644899 0.693081
vt 0.645267 0.733657
vt 0.607149 0.739940
vt 0.676624 0.642493
vt 0.717507 0.649888
vt 0.717627 0.663036
vt 0.676884 0.671172
vt 0.676113 0.586248
vt 0.716997 0.593643
vt 0.717116 0.606792
vt 0.676374 0.614928
vt 0.675603 0.530004
vt 0.716486 0.537399
vt 0.716606 0.550547
vt 0.675863 0.558683
vt 0.675092 0.473759
vt 0.715976 0.481154
vt 0.716095 0.494303
vt 0.675353 0.502439
vt 0.674582 0.417514
vt 0.715465 0.424910
vt 0.715585 0.438058
vt 0.674842 0.446194
vt 0.674071 0.361270
vt 0.714955 0.368665
vt 0.715074 0.381814
vt 0.674332 0.389950
vt 0.673561 0.305025
vt 0.714445 0.312421
vt 0.714564 0.325569
vt 0.673821 0.333705
vt 0.673051 0.248781
vt 0.713934 0.256176
vt 0.714054 0.269325
vt 0.673311 0.277461
vt 0.672540 0.192536
vt 0.713424 0.199932
vt 0.713543 0.213080
vt 0.672801 0.221216
vt 0.672030 0.136292
vt 0.712913 0.143687
vt 0.713033 0.156836
vt 0.672290 0.164972
vt 0.671519 0.080047
vt 0.712403 0.087443
vt 0.712522 0.100591
vt 0.671780 0.108727
vt 0.671009 0.023803
vt 0.711893 0.031198
vt 0.712012 0.044347
vt 0.671269 0.052483
vt 0.678666 0.867471
vt 0.678926 0.896150
vt 0.678155 0.811226
vt 0.719039 0.818621
vt 0.719158 0.831770
vt 0.678416 0.839906
vt 0.677645 0.754982
vt 0.718529 0.762377
vt 0.718648 0.775525
vt 0.677905 0.783661
vt 0.677134 0.698737
vt 0.718018 0.706132
vt 0.718137 0.719281
vt 0.677395 0.727417
vt 0.345470 0.741411
vt 0.345010 0.690770
vt 0.345980 0.797655
vt 0.345521 0.747015
vt 0.346491 0.853900
vt 0.346031 0.803260
vt 0.347001 0.910145
vt 0.346542 0.859504
vt 0.339345 0.066476
vt 0.338885 0.015835
vt 0.339855 0.122720
vt 0.339395 0.072080
vt 0.340365 0.178965
vt 0.339906 0.128324
vt 0.340876 0.235209
vt 0.340416 0.184569
vt 0.341386 0.291454
vt 0.340927 0.240814
vt 0.342407 0.403943
vt 0.341947 0.353303
vt 0.342917 0.460188
vt 0.342458 0.409547
vt 0.343428 0.516432
vt 0.342968 0.465792
vt 0.343938 0.572677
vt 0.343479 0.522037
vt 0.344449 0.628922
vt 0.343989 0.578281
vt 0.344959 0.685166
vt 0.344500 0.634526
vt 0.306539 0.021600
vt 0.306900 0.061298
vt 0.302011 0.061343
vt 0.301651 0.021645
vt 0.341601 0.853944
vt 0.341142 0.803304
vt 0.337517 0.403988
vt 0.337058 0.353347
vt 0.342112 0.910189
vt 0.341652 0.859549
vt 0.338028 0.460232
vt 0.337568 0.409592
vt 0.334455 0.066520
vt 0.333995 0.015880
vt 0.338538 0.516477
vt 0.338079 0.465836
vt 0.334965 0.122764
vt 0.334506 0.072124
vt 0.339049 0.572721
vt 0.338589 0.522081
vt 0.335476 0.179009
vt 0.335016 0.128369
vt 0.339559 0.628966
vt 0.339099 0.578326
vt 0.335986 0.235254
vt 0.335526 0.184613
vt 0.340580 0.741455
vt 0.340120 0.690815
vt 0.340070 0.685211
vt 0.339610 0.634570
vt 0.336496 0.291498
vt 0.336037 0.240858
vt 0.341091 0.797700
vt 0.340631 0.747059
vt 0.313025 0.736234
vt 0.312664 0.696536
vt 0.313535 0.792478
vt 0.313175 0.752780
vt 0.314046 0.848723
vt 0.313686 0.809025
vt 0.314556 0.904968
vt 0.314196 0.865270
vt 0.307410 0.117543
vt 0.307050 0.077845
vt 0.307920 0.173787
vt 0.307560 0.134090
vt 0.308431 0.230032
vt 0.308070 0.190334
vt 0.308941 0.286277
vt 0.308581 0.246579
vt 0.309451 0.342521
vt 0.309091 0.302823
vt 0.309962 0.398766
vt 0.309602 0.359068
vt 0.310472 0.455011
vt 0.310112 0.415313
vt 0.310983 0.511255
vt 0.310623 0.471557
vt 0.311493 0.567500
vt 0.311133 0.527802
vt 0.312004 0.623744
vt 0.311643 0.584046
vt 0.312514 0.679989
vt 0.312154 0.640291
vt 0.228644 0.786101
vt 0.265458 0.800960
vt 0.293783 0.828776
vt 0.309308 0.865314
vt 0.309668 0.905012
vt 0.294809 0.941826
vt 0.266994 0.970151
vt 0.230456 0.985676
vt 0.190758 0.986036
vt 0.153943 0.971178
vt 0.125618 0.943362
vt 0.110093 0.906824
vt 0.109733 0.867126
vt 0.124592 0.830312
vt 0.152408 0.801986
vt 0.188946 0.786462
vt 0.306095 0.511300
vt 0.305734 0.471602
vt 0.302522 0.117587
vt 0.302162 0.077889
vt 0.306605 0.567544
vt 0.306245 0.527846
vt 0.303032 0.173832
vt 0.302672 0.134134
vt 0.307116 0.623789
vt 0.306755 0.584091
vt 0.303542 0.230076
vt 0.303182 0.190379
vt 0.308137 0.736278
vt 0.307776 0.696580
vt 0.307626 0.680033
vt 0.307266 0.640336
vt 0.304053 0.286321
vt 0.303693 0.246623
vt 0.308647 0.792523
vt 0.308287 0.752825
vt 0.304563 0.342566
vt 0.304203 0.302868
vt 0.309158 0.848767
vt 0.308797 0.809069
vt 0.305074 0.398810
vt 0.304713 0.359112
vt 0.305584 0.455055
vt 0.305224 0.415357
vn 0.0000 1.0000 0.0000
vn 0.5556 0.0000 -0.8315
vn -0.1951 0.0000 -0.9808
vn -0.5556 0.0000 -0.8315
vn -0.8315 0.0000 -0.5556
vn -0.9808 0.0000 -0.1951
vn -0.9808 0.0000 0.1951
vn -0.8315 0.0000 0.5556
vn -0.5556 0.0000 0.8315
vn -0.1951 0.0000 0.9808
vn 0.1951 0.0000 0.9808
vn 0.5556 0.0000 0.8315
vn 0.8315 0.0000 0.5556
vn 0.9808 0.0000 0.1951
vn 0.9808 0.0000 -0.1951
vn 0.8315 0.0000 -0.5556
vn 0.1951 0.0000 -0.9808
vn -0.1645 0.5379 -0.8268
vn -0.4683 0.5379 -0.7009
vn -0.7009 0.5379 -0.4683
vn -0.8268 0.5379 -0.1645
vn -0.8268 0.5379 0.1645
vn -0.7009 0.5379 0.4683
vn -0.4683 0.5379 0.7009
vn -0.1645 0.5379 0.8268
vn 0.1645 0.5379 0.8268
vn 0.4683 0.5379 0.7009
vn 0.7009 0.5379 0.4683
vn 0.8268 0.5379 0.1645
vn 0.8268 0.5379 -0.1645
vn 0.7009 0.5379 -0.4683
vn 0.4683 0.5379 -0.7009
vn 0.1645 0.5379 -0.8268
vn -0.1003 0.8578 -0.5040
vn -0.2855 0.8578 -0.4273
vn -0.4273 0.8578 -0.2855
vn -0.5040 0.8578 -0.1003
vn -0.5040 0.8578 0.1003
vn -0.4273 0.8578 0.2855
vn -0.2855 0.8578 0.4273
vn -0.1003 0.8579 0.5040
vn 0.1003 0.8578 0.5040
vn 0.2855 0.8578 0.4273
vn 0.4273 0.8578 0.2855
vn 0.5040 0.8578 0.1003
vn 0.5040 0.8578 -0.1003
vn 0.4273 0.8578 -0.2855
vn 0.2855 0.8579 -0.4273
vn 0.1003 0.8579 -0.5040
vn 0.1912 0.1999 -0.9610
vn 0.5444 0.1999 -0.8147
vn 0.8147 0.1999 -0.5444
vn 0.9610 0.1999 -0.1912
vn 0.9610 0.1999 0.1912
vn 0.8147 0.1999 0.5444
vn 0.5444 0.1999 0.8147
vn 0.1912 0.1999 0.9610
vn -0.1912 0.1999 0.9610
vn -0.5444 0.1999 0.8147
vn -0.8147 0.1999 0.5444
vn -0.9610 0.1999 0.1912
vn -0.9610 0.1999 -0.1912
vn -0.8147 0.1999 -0.5444
vn -0.5444 0.1999 -0.8147
vn -0.1912 0.1999 -0.9610
vn 0.1202 0.7877 -0.6042
vn 0.3423 0.7877 -0.5123
vn 0.5123 0.7877 -0.3423
vn 0.6042 0.7877 -0.1202
vn 0.6042 0.7877 0.1202
vn 0.5123 0.7877 0.3423
vn 0.3423 0.7877 0.5123
vn 0.1202 0.7877 0.6042
vn -0.1202 0.7877 0.6042
vn -0.3423 0.7877 0.5123
vn -0.5123 0.7877 0.3423
vn -0.6042 0.7877 0.1202
vn -0.6042 0.7877 -0.1202
vn -0.5123 0.7877 -0.3423
vn -0.3423 0.7877 -0.5123
vn -0.1202 0.7877 -0.6042
vn 0.0000 -1.0000 0.0000
usemtl Material.001
s off
f 64/1/1 63/2/1 62/3/1 61/4/1 60/5/1 59/6/1 58/7/1 57/8/1 56/9/1 55/10/1 54/11/1 53/12/1 52/13/1 51/14/1 50/15/1 49/16/1
f 10/17/2 11/18/2 139/19/2 138/20/2
f 112/21/3 32/22/3 17/23/3 97/24/3
f 111/25/4 31/26/4 32/22/4 112/21/4
f 110/27/5 30/28/5 31/26/5 111/25/5
f 109/29/6 29/30/6 30/28/6 110/27/6
f 108/31/7 28/32/7 29/30/7 109/29/7
f 107/33/8 27/34/8 28/32/8 108/31/8
f 106/35/9 26/36/9 27/34/9 107/33/9
f 105/37/10 25/38/10 26/36/10 106/35/10
f 104/39/11 24/40/11 25/38/11 105/37/11
f 103/41/12 23/42/12 24/40/12 104/39/12
f 102/43/13 22/44/13 23/42/13 103/41/13
f 101/45/14 21/46/14 22/44/14 102/43/14
f 100/47/15 20/48/15 21/49/15 101/50/15
f 99/51/16 19/52/16 20/48/16 100/47/16
f 98/53/2 18/54/2 19/52/2 99/51/2
f 97/24/17 17/23/17 18/54/17 98/53/17
f 79/55/18 48/56/18 33/57/18 80/58/18
f 78/59/19 47/60/19 48/61/19 79/62/19
f 77/63/20 46/64/20 47/65/20 78/66/20
f 76/67/21 45/68/21 46/69/21 77/70/21
f 75/71/22 44/72/22 45/73/22 76/74/22
f 74/75/23 43/76/23 44/77/23 75/78/23
f 73/79/24 42/80/24 43/81/24 74/82/24
f 72/83/25 41/84/25 42/85/25 73/86/25
f 71/87/26 40/88/26 41/89/26 72/90/26
f 70/91/27 39/92/27 40/93/27 71/94/27
f 69/95/28 38/96/28 39/97/28 70/98/28
f 68/99/29 37/100/29 38/101/29 69/102/29
f 67/103/30 36/104/30 37/105/30 68/106/30
f 66/107/31 35/108/31 36/109/31 67/110/31
f 65/111/32 34/112/32 35/113/32 66/114/32
f 80/115/33 33/116/33 34/117/33 65/118/33
f 95/119/34 64/120/34 49/121/34 96/122/34
f 94/123/35 63/124/35 64/125/35 95/126/35
f 93/127/36 62/128/36 63/129/36 94/130/36
f 92/131/37 61/132/37 62/133/37 93/134/37
f 91/135/38 60/136/38 61/137/38 92/138/38
f 90/139/39 59/140/39 60/141/39 91/142/39
f 89/143/40 58/144/40 59/145/40 90/146/40
f 88/147/41 57/148/41 58/149/41 89/150/41
f 87/151/42 56/152/42 57/153/42 88/154/42
f 86/155/43 55/156/43 56/157/43 87/158/43
f 85/159/44 54/160/44 55/161/44 86/162/44
f 84/163/45 53/164/45 54/165/45 85/166/45
f 83/167/46 52/13/46 53/12/46 84/168/46
f 82/169/47 51/170/47 52/171/47 83/172/47
f 81/173/48 50/174/48 51/175/48 82/176/48
f 96/177/49 49/178/49 50/179/49 81/180/49
f 17/23/50 80/115/50 65/118/50 18/54/50
f 18/54/51 65/111/51 66/114/51 19/52/51
f 19/52/52 66/107/52 67/110/52 20/48/52
f 20/48/53 67/103/53 68/106/53 21/49/53
f 21/46/54 68/99/54 69/102/54 22/44/54
f 22/44/55 69/95/55 70/98/55 23/42/55
f 23/42/56 70/91/56 71/94/56 24/40/56
f 24/40/57 71/87/57 72/90/57 25/38/57
f 25/38/58 72/83/58 73/86/58 26/36/58
f 26/36/59 73/79/59 74/82/59 27/34/59
f 27/34/60 74/75/60 75/78/60 28/32/60
f 28/32/61 75/71/61 76/74/61 29/30/61
f 29/30/62 76/67/62 77/70/62 30/28/62
f 30/28/63 77/63/63 78/66/63 31/26/63
f 31/26/64 78/59/64 79/62/64 32/22/64
f 32/22/65 79/55/65 80/58/65 17/23/65
f 33/116/66 96/177/66 81/180/66 34/117/66
f 34/112/67 81/173/67 82/176/67 35/113/67
f 35/108/68 82/169/68 83/172/68 36/109/68
f 36/104/69 83/167/69 84/168/69 37/105/69
f 37/100/70 84/163/70 85/166/70 38/101/70
f 38/96/71 85/159/71 86/162/71 39/97/71
f 39/92/72 86/155/72 87/158/72 40/93/72
f 40/88/73 87/151/73 88/154/73 41/89/73
f 41/84/74 88/147/74 89/150/74 42/85/74
f 42/80/75 89/143/75 90/146/75 43/81/75
f 43/76/76 90/139/76 91/142/76 44/77/76
f 44/72/77 91/135/77 92/138/77 45/73/77
f 45/68/78 92/131/78 93/134/78 46/69/78
f 46/64/79 93/127/79 94/130/79 47/65/79
f 47/60/80 94/123/80 95/126/80 48/61/80
f 48/56/81 95/119/81 96/122/81 33/57/81
f 2/181/82 1/182/82 97/24/82 98/53/82
f 3/183/82 2/184/82 98/53/82 99/51/82
f 4/185/82 3/186/82 99/51/82 100/47/82
f 5/187/82 4/188/82 100/47/82 101/50/82
f 6/189/82 5/190/82 101/45/82 102/43/82
f 7/191/82 6/192/82 102/43/82 103/41/82
f 8/193/82 7/194/82 103/41/82 104/39/82
f 9/195/82 8/196/82 104/39/82 105/37/82
f 10/197/82 9/198/82 105/37/82 106/35/82
f 11/18/82 10/17/82 106/35/82 107/33/82
f 12/199/82 11/200/82 107/33/82 108/31/82
f 13/201/82 12/202/82 108/31/82 109/29/82
f 14/203/82 13/204/82 109/29/82 110/27/82
f 15/205/82 14/206/82 110/27/82 111/25/82
f 16/207/82 15/208/82 111/25/82 112/21/82
f 1/209/82 16/210/82 112/21/82 97/24/82
f 117/211/14 118/212/14 150/213/14 149/214/14
f 3/186/8 4/185/8 132/215/8 131/216/8
f 11/200/16 12/199/16 140/217/16 139/218/16
f 4/188/7 5/187/7 133/219/7 132/220/7
f 12/202/15 13/201/15 141/221/15 140/222/15
f 5/190/6 6/189/6 134/223/6 133/224/6
f 13/204/14 14/203/14 142/225/14 141/226/14
f 6/192/5 7/191/5 135/227/5 134/228/5
f 14/206/13 15/205/13 143/229/13 142/230/13
f 7/194/4 8/193/4 136/231/4 135/232/4
f 15/208/12 16/207/12 144/233/12 143/234/12
f 8/196/3 9/195/3 137/235/3 136/236/3
f 1/182/10 2/181/10 130/237/10 129/238/10
f 16/210/11 1/209/11 129/239/11 144/240/11
f 9/198/17 10/197/17 138/241/17 137/242/17
f 2/184/9 3/183/9 131/243/9 130/244/9
f 114/245/82 113/246/82 129/238/82 130/237/82
f 115/247/82 114/248/82 130/244/82 131/243/82
f 116/249/82 115/250/82 131/216/82 132/215/82
f 117/251/82 116/252/82 132/220/82 133/219/82
f 118/212/82 117/211/82 133/224/82 134/223/82
f 119/253/82 118/254/82 134/228/82 135/227/82
f 120/255/82 119/256/82 135/232/82 136/231/82
f 121/257/82 120/258/82 136/236/82 137/235/82
f 122/259/82 121/260/82 137/242/82 138/241/82
f 123/261/82 122/262/82 138/20/82 139/19/82
f 124/263/82 123/264/82 139/218/82 140/217/82
f 125/265/82 124/266/82 140/222/82 141/221/82
f 126/267/82 125/268/82 141/226/82 142/225/82
f 127/269/82 126/270/82 142/230/82 143/229/82
f 128/271/82 127/272/82 143/234/82 144/233/82
f 113/273/82 128/274/82 144/240/82 129/239/82
f 145/275/82 146/276/82 147/277/82 148/278/82 149/279/82 150/280/82 151/281/82 152/282/82 153/283/82 154/284/82 155/285/82 156/286/82 157/287/82 158/288/82 159/289/82 160/290/82
f 125/268/6 126/267/6 158/291/6 157/292/6
f 118/254/13 119/253/13 151/293/13 150/294/13
f 126/270/5 127/269/5 159/295/5 158/296/5
f 119/256/12 120/255/12 152/297/12 151/298/12
f 127/272/4 128/271/4 160/299/4 159/300/4
f 120/258/11 121/257/11 153/301/11 152/302/11
f 113/246/17 114/245/17 146/303/17 145/304/17
f 128/274/3 113/273/3 145/305/3 160/306/3
f 121/260/10 122/259/10 154/307/10 153/308/10
f 114/248/2 115/247/2 147/309/2 146/310/2
f 122/262/9 123/261/9 155/311/9 154/312/9
f 115/250/16 116/249/16 148/313/16 147/314/16
f 123/264/8 124/263/8 156/315/8 155/316/8
f 116/252/15 117/251/15 149/279/15 148/278/15
f 124/266/7 125/265/7 157/317/7 156/318/7
